<svg xmlns="http://www.w3.org/2000/svg" width="250" viewBox="0 0 1691.86 863.14">
  <defs>
    <linearGradient id="a" x1="873.96" x2="451.34" y1="273.35" y2="819.93" gradientUnits="userSpaceOnUse">
      <stop offset="0" stop-color="#bd9f1f" stop-opacity=".4"/>
      <stop offset=".51" stop-color="#f5d54a"/>
    </linearGradient>
  </defs>
  <g data-name="Layer 2">
    <path fill="#ffdd4c" d="M1691.86 60.11V803a60.09 60.09 0 01-60.11 60.11H60.1A60.11 60.11 0 010 803V60.11A60.07 60.07 0 0160.1 0h1571.65a60.11 60.11 0 0160.11 60.11z"/>
    <path fill="url(#a)" d="M1472.65 863.14H60.1A60.11 60.11 0 010 803V60.11A60.07 60.07 0 0160.1 0h259.27S371.44 418.57 775 483.66s697.65 379.48 697.65 379.48z"/>
    <path d="M396.1 695.9l-202.87-527H209l113.74 292.68c32.94 85.34 68.87 179.67 82.35 217.85h1.5c11.23-34.44 53.9-137.75 85.34-215.61l117.53-295h16.47l-211.11 527zM1016.71 423.4H730v259h312.18l-3 13.48H715v-527h316.66v13.48H730v227.56h286.72zM1486.84 695.9l-178.17-256.78h-.75L1129 695.9h-18l188.66-269.51-180.39-257.53H1138l170.69 244.81h.75l173.66-244.81h18l-183.45 256.78 187.91 270.26z"/>
  </g>
</svg>
