<svg xmlns="http://www.w3.org/2000/svg" xmlns:xlink="http://www.w3.org/1999/xlink" viewBox="0 0 1691.86 863.14"><defs><style>.cls-1{fill:#ffdd4c;}.cls-2{fill:url(#linear-gradient);}</style><linearGradient id="linear-gradient" x1="873.96" y1="273.35" x2="451.34" y2="819.93" gradientUnits="userSpaceOnUse"><stop offset="0" stop-color="#bd9f1f" stop-opacity="0.4"/><stop offset="0.51" stop-color="#f5d54a"/></linearGradient></defs><g id="Layer_2" data-name="Layer 2"><g id="Logo"><path class="cls-1" d="M1691.86,60.11V803a60.09,60.09,0,0,1-60.11,60.11H60.1A60.11,60.11,0,0,1,0,803V60.11A60.07,60.07,0,0,1,60.1,0H1631.75A60.11,60.11,0,0,1,1691.86,60.11Z"/><path class="cls-2" d="M1472.65,863.14H60.1A60.11,60.11,0,0,1,0,803V60.11A60.07,60.07,0,0,1,60.1,0H319.37S371.44,418.57,775,483.66,1472.65,863.14,1472.65,863.14Z"/><path d="M396.1,695.9l-202.87-527H209L322.74,461.58c32.94,85.34,68.87,179.67,82.35,217.85h1.5c11.23-34.44,53.9-137.75,85.34-215.61l117.53-295h16.47l-211.11,527Z"/><path d="M1016.71,423.4H730v259h312.18l-3,13.48H715v-527h316.66v13.48H730V409.92h286.72Z"/><path d="M1486.84,695.9,1308.67,439.12h-.75L1129,695.9h-18l188.66-269.51L1119.27,168.86H1138l170.69,244.81h.75L1483.1,168.86h18L1317.65,425.64,1505.56,695.9Z"/></g></g></svg>